{
    "asset" : {
        "generator" : "Khronos glTF Blender I/O v1.6.16",
        "version" : "2.0"
    },
    "scene" : 0,
    "scenes" : [
        {
            "name" : "Scene",
            "nodes" : [
                0
            ]
        }
    ],
    "nodes" : [
        {
            "mesh" : 0,
            "name" : "walls",
            "rotation" : [
                0.7071068286895752,
                0,
                0,
                0.7071067094802856
            ]
        }
    ],
    "materials" : [
        {
            "doubleSided" : true,
            "name" : "wall_bsdf",
            "pbrMetallicRoughness" : {
                "metallicFactor" : 0,
                "roughnessFactor" : 0.5
            }
        }
    ],
    "meshes" : [
        {
            "name" : "walls",
            "primitives" : [
                {
                    "attributes" : {
                        "POSITION" : 0,
                        "NORMAL" : 1,
                        "TEXCOORD_0" : 2
                    },
                    "indices" : 3,
                    "material" : 0
                }
            ]
        }
    ],
    "accessors" : [
        {
            "bufferView" : 0,
            "componentType" : 5126,
            "count" : 42168,
            "max" : [
                30.29199981689453,
                -0.382999986410141,
                1
            ],
            "min" : [
                -30.308000564575195,
                -24.533000946044922,
                -70
            ],
            "type" : "VEC3"
        },
        {
            "bufferView" : 1,
            "componentType" : 5126,
            "count" : 42168,
            "type" : "VEC3"
        },
        {
            "bufferView" : 2,
            "componentType" : 5126,
            "count" : 42168,
            "type" : "VEC2"
        },
        {
            "bufferView" : 3,
            "componentType" : 5123,
            "count" : 204864,
            "type" : "SCALAR"
        }
    ],
    "bufferViews" : [
        {
            "buffer" : 0,
            "byteLength" : 506016,
            "byteOffset" : 0
        },
        {
            "buffer" : 0,
            "byteLength" : 506016,
            "byteOffset" : 506016
        },
        {
            "buffer" : 0,
            "byteLength" : 337344,
            "byteOffset" : 1012032
        },
        {
            "buffer" : 0,
            "byteLength" : 409728,
            "byteOffset" : 1349376
        }
    ],
    "buffers" : [
        {
            "byteLength" : 1759104,
            "uri" : "wall.bin"
        }
    ]
}
